<svg width="18" height="19" viewBox="0 0 18 19" fill="none" xmlns="http://www.w3.org/2000/svg">
<path d="M3.6816 3.86711C4.23247 4.31459 4.43923 4.28063 5.4745 4.21121L15.2328 3.62564C15.4395 3.62564 15.2675 3.41888 15.1988 3.38492L13.5772 2.21304C13.2671 1.97231 12.8528 1.69614 12.0598 1.76481L2.61163 2.4545C2.26752 2.48847 2.19811 2.66126 2.33546 2.79861L3.6816 3.86711ZM4.26718 6.14145L4.26718 16.4085C4.26718 16.9601 4.54261 17.1669 5.16362 17.1322L15.8878 16.5119C16.5088 16.4779 16.5782 16.0984 16.5782 15.6501V5.45177C16.5782 5.00428 16.4061 4.76282 16.0258 4.79678L4.81878 5.45177C4.40526 5.48647 4.26718 5.69397 4.26718 6.14145ZM14.854 6.69158C14.9226 7.00172 14.854 7.31186 14.5438 7.3473L14.0269 7.45068V15.0299C13.578 15.2713 13.1644 15.4094 12.8196 15.4094C12.2673 15.4094 12.1292 15.2366 11.7157 14.7205L8.33589 9.41415V14.5477L9.40513 14.7899C9.40513 14.7899 9.40513 15.4102 8.54265 15.4102L6.16345 15.5475C6.09478 15.4102 6.16345 15.0653 6.40491 14.9966L7.02519 14.8246L7.02519 8.03625L6.16493 7.96684C6.09551 7.6567 6.2683 7.20922 6.75049 7.17451L9.30249 7.00246L12.8203 12.3774V7.62199L11.9232 7.51935C11.8545 7.1398 12.1299 6.86437 12.4748 6.8304L14.854 6.69158ZM1.81856 1.52409L11.647 0.800432C12.8536 0.697053 13.1644 0.765726 13.9228 1.31733L17.0604 3.52226C17.5773 3.90108 17.7501 4.00445 17.7501 4.41797L17.7501 16.5119C17.7501 17.2695 17.4746 17.7185 16.5095 17.7864L5.09495 18.4761C4.37129 18.5108 4.02571 18.4074 3.64616 17.9245L1.33563 14.9265C0.922114 14.3749 0.750061 13.9621 0.750061 13.4792L0.750061 2.7292C0.750061 2.10966 1.02623 1.59202 1.81856 1.52409Z" fill="black"/>
</svg>
